<svg width="36" height="36" viewBox="0 0 36 36" fill="none" xmlns="http://www.w3.org/2000/svg">
<path d="M6.32245 13.1372H4.96777V7.25537C4.96777 6.13501 5.83862 5.29468 6.99976 5.29468H9.0318V2.96057C9.0318 1.84021 9.90265 1 11.0638 1H23.6429C24.8041 1 25.6749 1.84021 25.6749 2.96057V13.1372H24.3203V2.96057C24.3203 2.58716 24.03 2.30713 23.6429 2.30713H11.0638C10.6768 2.30713 10.3865 2.58716 10.3865 2.96057V5.29468H19.1918C20.353 5.29468 21.2239 6.13501 21.2239 7.25537V13.1372H19.8692V7.25537C19.8692 6.88184 19.5789 6.60181 19.1918 6.60181H17.1599V13.1372H15.8052V6.60181H13.0958V13.1372H11.7411V6.60181H6.99976C6.61273 6.60181 6.32245 6.88184 6.32245 7.25537V13.1372Z" fill="#00AAD2"/>
<path d="M9.03149 11.8302C9.41858 11.8302 9.70886 11.55 9.70886 11.1766V8.5625C9.70886 8.18909 9.41858 7.90894 9.03149 7.90894C8.64447 7.90894 8.35419 8.18909 8.35419 8.5625V11.1766C8.35419 11.55 8.64447 11.8302 9.03149 11.8302Z" fill="#00AAD2"/>
<path d="M23.6429 24.0605C23.2559 24.0605 22.9656 24.3407 22.9656 24.7141C22.9656 25.0875 23.2559 25.3677 23.6429 25.3677C24.03 25.3677 24.3203 25.0875 24.3203 24.7141C24.3203 24.4341 24.03 24.0605 23.6429 24.0605Z" fill="#00AAD2"/>
<path d="M26.3518 24.0605H29.4482C29.7385 24.0605 30.1255 24.3407 30.1255 24.7141C30.1255 25.0875 29.8353 25.3677 29.4482 25.3677H26.3518C25.9648 25.3677 25.6745 25.0875 25.6745 24.7141C25.6745 24.3407 25.9648 24.0605 26.3518 24.0605Z" fill="#00AAD2"/>
<path fill-rule="evenodd" clip-rule="evenodd" d="M32.7381 17.6185V12.3903C32.7381 10.6163 31.1899 9.12256 29.3514 9.12256H26.5453V10.4297H29.3514C30.5126 10.4297 31.3834 11.2699 31.3834 12.3903V21.5398H28.287V17.6185C28.287 16.0314 27.1259 14.7244 25.5776 14.4442V14.3508H4.38666C3.22552 14.3508 2.25793 13.604 2.25793 12.3903C2.25793 11.3633 3.03198 10.6163 4.09637 10.4297V9.12256C2.35468 9.21594 1 10.6163 1 12.3903V32.2765C1 34.0504 2.54822 35.5442 4.38666 35.5442H24.9971C26.642 35.5442 27.9967 34.4238 28.287 32.9301H29.4481C31.2866 32.9301 32.8348 31.4363 32.8348 29.6624V27.9818H33.5122C34.6733 27.9818 35.5442 27.1416 35.5442 26.0212V20.1394C35.4474 18.7389 34.2863 17.6185 32.7381 17.6185ZM27.0291 32.2765C27.0291 33.3969 26.1583 34.2372 24.9971 34.2372H4.38666C3.22552 34.2372 2.35468 33.3969 2.35468 32.2765V14.911C2.93524 15.3778 3.70935 15.5646 4.48346 15.5646H24.9971C26.1583 15.5646 27.0291 16.4049 27.0291 17.5253V21.4464H22.2877C21.1266 21.4464 20.2557 22.2867 20.2557 23.4071V26.0212C20.2557 27.1416 21.1266 27.9818 22.2877 27.9818H27.0291V32.2765ZM31.4802 29.6624C31.4802 30.7827 30.6093 31.623 29.4481 31.623H28.3838V27.9818H31.4802V29.6624ZM34.0928 26.0212C34.0928 26.3947 33.8025 26.6748 33.4154 26.6748H22.2877C21.9007 26.6748 21.6104 26.3947 21.6104 26.0212V23.4071C21.6104 23.0336 21.9007 22.7535 22.2877 22.7535H32.8348C33.3187 22.7535 33.8025 22.6602 34.1895 22.3801V26.0212H34.0928ZM32.7381 18.9257C33.5122 18.9257 34.0928 19.4858 34.0928 20.2327C34.0928 20.8862 33.5122 21.5398 32.7381 21.5398V18.9257Z" fill="#00AAD2"/>
<path d="M6.32245 13.1372H4.96777V7.25537C4.96777 6.13501 5.83862 5.29468 6.99976 5.29468H9.0318V2.96057C9.0318 1.84021 9.90265 1 11.0638 1H23.6429C24.8041 1 25.6749 1.84021 25.6749 2.96057V13.1372H24.3203V2.96057C24.3203 2.58716 24.03 2.30713 23.6429 2.30713H11.0638C10.6768 2.30713 10.3865 2.58716 10.3865 2.96057V5.29468H19.1918C20.353 5.29468 21.2239 6.13501 21.2239 7.25537V13.1372H19.8692V7.25537C19.8692 6.88184 19.5789 6.60181 19.1918 6.60181H17.1599V13.1372H15.8052V6.60181H13.0958V13.1372H11.7411V6.60181H6.99976C6.61273 6.60181 6.32245 6.88184 6.32245 7.25537V13.1372Z" stroke="#00AAD2" stroke-width="0.2"/>
<path d="M9.03149 11.8302C9.41858 11.8302 9.70886 11.55 9.70886 11.1766V8.5625C9.70886 8.18909 9.41858 7.90894 9.03149 7.90894C8.64447 7.90894 8.35419 8.18909 8.35419 8.5625V11.1766C8.35419 11.55 8.64447 11.8302 9.03149 11.8302Z" stroke="#00AAD2" stroke-width="0.2"/>
<path d="M23.6429 24.0605C23.2559 24.0605 22.9656 24.3407 22.9656 24.7141C22.9656 25.0875 23.2559 25.3677 23.6429 25.3677C24.03 25.3677 24.3203 25.0875 24.3203 24.7141C24.3203 24.4341 24.03 24.0605 23.6429 24.0605Z" stroke="#00AAD2" stroke-width="0.2"/>
<path d="M26.3518 24.0605H29.4482C29.7385 24.0605 30.1255 24.3407 30.1255 24.7141C30.1255 25.0875 29.8353 25.3677 29.4482 25.3677H26.3518C25.9648 25.3677 25.6745 25.0875 25.6745 24.7141C25.6745 24.3407 25.9648 24.0605 26.3518 24.0605Z" stroke="#00AAD2" stroke-width="0.2"/>
<path fill-rule="evenodd" clip-rule="evenodd" d="M32.7381 17.6185V12.3903C32.7381 10.6163 31.1899 9.12256 29.3514 9.12256H26.5453V10.4297H29.3514C30.5126 10.4297 31.3834 11.2699 31.3834 12.3903V21.5398H28.287V17.6185C28.287 16.0314 27.1259 14.7244 25.5776 14.4442V14.3508H4.38666C3.22552 14.3508 2.25793 13.604 2.25793 12.3903C2.25793 11.3633 3.03198 10.6163 4.09637 10.4297V9.12256C2.35468 9.21594 1 10.6163 1 12.3903V32.2765C1 34.0504 2.54822 35.5442 4.38666 35.5442H24.9971C26.642 35.5442 27.9967 34.4238 28.287 32.9301H29.4481C31.2866 32.9301 32.8348 31.4363 32.8348 29.6624V27.9818H33.5122C34.6733 27.9818 35.5442 27.1416 35.5442 26.0212V20.1394C35.4474 18.7389 34.2863 17.6185 32.7381 17.6185ZM27.0291 32.2765C27.0291 33.3969 26.1583 34.2372 24.9971 34.2372H4.38666C3.22552 34.2372 2.35468 33.3969 2.35468 32.2765V14.911C2.93524 15.3778 3.70935 15.5646 4.48346 15.5646H24.9971C26.1583 15.5646 27.0291 16.4049 27.0291 17.5253V21.4464H22.2877C21.1266 21.4464 20.2557 22.2867 20.2557 23.4071V26.0212C20.2557 27.1416 21.1266 27.9818 22.2877 27.9818H27.0291V32.2765ZM31.4802 29.6624C31.4802 30.7827 30.6093 31.623 29.4481 31.623H28.3838V27.9818H31.4802V29.6624ZM34.0928 26.0212C34.0928 26.3947 33.8025 26.6748 33.4154 26.6748H22.2877C21.9007 26.6748 21.6104 26.3947 21.6104 26.0212V23.4071C21.6104 23.0336 21.9007 22.7535 22.2877 22.7535H32.8348C33.3187 22.7535 33.8025 22.6602 34.1895 22.3801V26.0212H34.0928ZM32.7381 18.9257C33.5122 18.9257 34.0928 19.4858 34.0928 20.2327C34.0928 20.8862 33.5122 21.5398 32.7381 21.5398V18.9257Z" stroke="#00AAD2" stroke-width="0.2"/>
</svg>
